<?xml version="1.0" encoding="UTF-8" standalone="no"?>
<svg
   xmlns:dc="http://purl.org/dc/elements/1.1/"
   xmlns:cc="http://creativecommons.org/ns#"
   xmlns:rdf="http://www.w3.org/1999/02/22-rdf-syntax-ns#"
   xmlns:svg="http://www.w3.org/2000/svg"
   xmlns="http://www.w3.org/2000/svg"
   xmlns:xlink="http://www.w3.org/1999/xlink"
   xmlns:sodipodi="http://sodipodi.sourceforge.net/DTD/sodipodi-0.dtd"
   xmlns:inkscape="http://www.inkscape.org/namespaces/inkscape"
   id="OBJECTS"
   viewBox="0 0 242.673 191.626"
   version="1.1"
   sodipodi:docname="details-2-office-team-work.svg"
   inkscape:version="0.92.4 (5da689c313, 2019-01-14)">
  <metadata
     id="metadata256">
    <rdf:RDF>
      <cc:Work
         rdf:about="">
        <dc:format>image/svg+xml</dc:format>
        <dc:type
           rdf:resource="http://purl.org/dc/dcmitype/StillImage" />
      </cc:Work>
    </rdf:RDF>
  </metadata>
  <sodipodi:namedview
     pagecolor="#ffffff"
     bordercolor="#666666"
     borderopacity="1"
     objecttolerance="10"
     gridtolerance="10"
     guidetolerance="10"
     inkscape:pageopacity="0"
     inkscape:pageshadow="2"
     inkscape:window-width="1920"
     inkscape:window-height="986"
     id="namedview254"
     showgrid="false"
     inkscape:zoom="1.7416968"
     inkscape:cx="190.0888"
     inkscape:cy="163.53402"
     inkscape:window-x="-11"
     inkscape:window-y="-11"
     inkscape:window-maximized="1"
     inkscape:current-layer="OBJECTS" />
  <defs
     id="defs26">
    <style
       id="style2">.cls-1{fill:#f0f0f0;}.cls-2{fill:url(#linear-gradient);}.cls-3{fill:#fff;}.cls-4{fill:#c7c7c7;}.cls-5{fill:#482c3b;}.cls-6{fill:#a6aeba;}.cls-7{fill:#d2dceb;}.cls-8{fill:#d0dfe1;}.cls-9{fill:#b0bebf;}.cls-10{fill:#ffe0bc;}.cls-11{fill:#0b5a70;}.cls-12{fill:#f7d4b2;}.cls-13{fill:#8b4200;}.cls-14,.cls-21,.cls-25{fill:none;stroke-miterlimit:10;}.cls-14{stroke:#482c3b;}.cls-14,.cls-21{stroke-width:0.25px;}.cls-15{fill:#ffd04d;}.cls-16{fill:#b56537;}.cls-17{fill:#e4ddd7;}.cls-18{fill:#133a50;}.cls-19{fill:#364469;}.cls-20{fill:#e9f2f4;}.cls-21{stroke:#aebfde;}.cls-22{fill:#97a3cc;}.cls-23{fill:url(#linear-gradient-2);}.cls-24{fill:#dbdbdb;}.cls-25{stroke:#e9f2f4;}.cls-26{fill:#00a0b4;}</style>
    <linearGradient
       id="linear-gradient"
       x1="152.574"
       y1="-36.225"
       x2="397.634"
       y2="-36.225"
       gradientTransform="matrix(-0.946, -0.19, 0.189, -0.945, 398.514, 103.642)"
       gradientUnits="userSpaceOnUse">
      <stop
         offset="0"
         stop-color="#00bfc2"
         id="stop4" />
      <stop
         offset="0.489"
         stop-color="#00bdc4"
         id="stop6" />
      <stop
         offset="0.665"
         stop-color="#00b6c9"
         id="stop8" />
      <stop
         offset="0.79"
         stop-color="#00abd4"
         id="stop10" />
      <stop
         offset="0.892"
         stop-color="#009ae2"
         id="stop12" />
      <stop
         offset="0.978"
         stop-color="#0084f5"
         id="stop14" />
      <stop
         offset="1"
         stop-color="#007dfb"
         id="stop16" />
    </linearGradient>
    <linearGradient
       id="linear-gradient-2"
       x1="365.24"
       y1="125.365"
       x2="389.536"
       y2="125.62"
       gradientTransform="matrix(-0.923, -0.32, 0.451, -0.927, 460.639, 301.257)"
       gradientUnits="userSpaceOnUse">
      <stop
         offset="0"
         stop-color="#eef4fb"
         id="stop19" />
      <stop
         offset="0.311"
         stop-color="#e3edf8"
         id="stop21" />
      <stop
         offset="1"
         stop-color="#cfe1f3"
         id="stop23" />
    </linearGradient>
    <linearGradient
       inkscape:collect="always"
       xlink:href="#linear-gradient"
       id="linearGradient1317"
       gradientUnits="userSpaceOnUse"
       gradientTransform="matrix(-0.946,-0.19,0.189,-0.945,398.35076,102.44457)"
       x1="152.574"
       y1="-36.225"
       x2="397.634"
       y2="-36.225" />
    <linearGradient
       inkscape:collect="always"
       xlink:href="#linear-gradient-2"
       id="linearGradient1319"
       gradientUnits="userSpaceOnUse"
       gradientTransform="matrix(-0.923,-0.32,0.451,-0.927,460.47576,302.05956)"
       x1="365.24"
       y1="125.365"
       x2="389.536"
       y2="125.62" />
  </defs>
  <title
     id="title28">details-2-office-team-work</title>
  <path
     inkscape:connector-curvature="0"
     class="cls-1"
     d="m 83.385872,56.486324 c 46.024998,-16.556 80.668998,-88.821 134.928998,-30.61 54.26,58.211 9.237,146.433996 -56.034,156.868996 -65.270998,10.435 -140.854998,-18 -154.4249979,-64.41499 C -15.333128,39.024324 52.510872,67.592324 83.385872,56.486324 Z"
     id="path30-1"
     style="fill:#f0f0f0" />
  <path
     inkscape:connector-curvature="0"
     class="cls-2"
     d="m 80.102872,51.708324 c 46.025998,-16.555 80.672998,-88.821 134.931998,-30.607 54.259,58.214 9.237,146.433996 -56.034,156.868996 -65.270998,10.435 -140.854998,-18 -154.4249979,-64.41499 C -18.615128,34.246324 49.227872,62.814324 80.102872,51.708324 Z"
     id="path32-7"
     style="fill:url(#linearGradient1317)" />
  <path
     inkscape:connector-curvature="0"
     class="cls-3"
     d="m 149.15687,28.109324 -0.466,-1.335 -0.466,1.335 a 4.661,4.661 0 0 1 -2.589,2.636 v 0 a 4.66,4.66 0 0 1 2.589,2.636 l 0.466,1.335 0.466,-1.335 a 4.661,4.661 0 0 1 2.589,-2.636 v 0 a 4.661,4.661 0 0 1 -2.589,-2.636 z"
     id="path34-4"
     style="fill:#ffffff" />
  <path
     inkscape:connector-curvature="0"
     class="cls-3"
     d="m 97.054872,125.40133 -0.466,-1.335 -0.466,1.335 a 4.661,4.661 0 0 1 -2.589,2.636 v 0 a 4.661,4.661 0 0 1 2.589,2.636 l 0.466,1.335 0.466,-1.335 a 4.66,4.66 0 0 1 2.588996,-2.636 v 0 a 4.66,4.66 0 0 1 -2.588996,-2.636 z"
     id="path36-3"
     style="fill:#ffffff" />
  <path
     inkscape:connector-curvature="0"
     class="cls-3"
     d="m 223.27587,63.366324 -0.308,-0.881 -0.307,0.881 a 3.075,3.075 0 0 1 -1.705,1.735 v 0 a 3.075,3.075 0 0 1 1.708,1.739 l 0.307,0.881 0.308,-0.881 a 3.075,3.075 0 0 1 1.708,-1.739 v 0 a 3.075,3.075 0 0 1 -1.711,-1.735 z"
     id="path38-5"
     style="fill:#ffffff" />
  <path
     inkscape:connector-curvature="0"
     class="cls-3"
     d="m 76.704872,73.076324 -0.307,-0.881 -0.307,0.881 a 3.074,3.074 0 0 1 -1.708,1.739 v 0 a 3.075,3.075 0 0 1 1.708,1.739 l 0.307,0.881 0.307,-0.881 a 3.075,3.075 0 0 1 1.708,-1.739 v 0 a 3.075,3.075 0 0 1 -1.708,-1.739 z"
     id="path40-4"
     style="fill:#ffffff" />
  <polygon
     transform="translate(-0.16412788,0.8023252)"
     class="cls-4"
     points="55.891,191.267 57.608,191.267 71.611,123.007 68.064,123.007 "
     id="polygon42-0"
     style="fill:#c7c7c7" />
  <polygon
     transform="translate(-0.16412788,0.8023252)"
     class="cls-4"
     points="188.018,191.267 186.301,191.267 172.298,123.007 175.845,123.007 "
     id="polygon44-5"
     style="fill:#c7c7c7" />
  <path
     inkscape:connector-curvature="0"
     class="cls-5"
     d="m 53.463872,82.720324 a 4.872,4.872 0 0 0 -1.11,2.214 3.411,3.411 0 0 1 1.147,-1.551 c 0.705,-0.448 1.642,-0.387 2.353,-0.826 a 3.83,3.83 0 0 0 1.307,-1.9 5.383,5.383 0 0 1 -1.817,1.053 3.649,3.649 0 0 0 -1.88,1.01 z"
     id="path46-8"
     style="fill:#482c3b" />
  <rect
     class="cls-6"
     x="59.47884"
     y="159.15932"
     width="2.6070001"
     height="25.264"
     id="rect48-6"
     style="fill:#a6aeba" />
  <rect
     class="cls-7"
     x="58.686848"
     y="155.48032"
     width="4.191"
     height="3.678"
     id="rect50-3"
     style="fill:#d2dceb" />
  <rect
     class="cls-7"
     x="59.199848"
     y="174.70032"
     width="3.165"
     height="7.8839998"
     id="rect52-2"
     style="fill:#d2dceb" />
  <rect
     class="cls-7"
     x="58.686848"
     y="182.58331"
     width="4.191"
     height="3.678"
     id="rect54-9"
     style="fill:#d2dceb" />
  <rect
     class="cls-6"
     x="55.701862"
     y="148.5173"
     width="10.16"
     height="6.9629998"
     id="rect56-5"
     style="fill:#a6aeba" />
  <rect
     class="cls-6"
     x="47.11684"
     y="146.43532"
     width="28.344"
     height="5.2140002"
     rx="0.54100001"
     ry="0.54100001"
     id="rect58-4"
     style="fill:#a6aeba" />
  <polygon
     transform="translate(-0.16412788,0.8023252)"
     class="cls-6"
     points="50.848,188.973 58.85,185.006 58.85,182.24 49.798,188.307 "
     id="polygon60-6"
     style="fill:#a6aeba" />
  <circle
     class="cls-6"
     cx="49.633839"
     cy="190.55331"
     r="1.875"
     id="circle62-8"
     style="fill:#a6aeba" />
  <circle
     class="cls-6"
     cx="60.781849"
     cy="190.55331"
     r="1.875"
     id="circle64-0"
     style="fill:#a6aeba" />
  <polygon
     transform="translate(-0.16412788,0.8023252)"
     class="cls-6"
     points="71.043,188.973 63.042,185.006 63.042,182.24 72.094,188.307 "
     id="polygon66-1"
     style="fill:#a6aeba" />
  <circle
     class="cls-6"
     cx="71.929863"
     cy="190.55331"
     r="1.875"
     id="circle68-8"
     style="fill:#a6aeba" />
  <rect
     class="cls-6"
     x="60.27486"
     y="184.4223"
     width="1.015"
     height="6.1069999"
     id="rect70-2"
     style="fill:#a6aeba" />
  <path
     inkscape:connector-curvature="0"
     class="cls-8"
     d="m 42.404872,149.29133 a 1.983,1.983 0 0 1 -1.994,-1.509 c -0.685,-2.824 -1.929,-8.1 -1.957,-21.268 a 126.566,126.566 0 0 0 -4.092,-30.247006 3.019,3.019 0 0 1 1.442,-3.278 v 0 a 4.089,4.089 0 0 1 2.04,-0.545 h 25.257 c 0,0 10.383,18.573006 11.745,24.937006 1.362,6.364 3.264,30.793 3.264,30.793 z"
     id="path72-5"
     style="fill:#d0dfe1" />
  <path
     inkscape:connector-curvature="0"
     class="cls-9"
     d="m 43.228872,149.34033 c 0,0 -2.359,-4.625 -2.4,-22.825 -0.032,-14.986 -3.01,-27.332006 -3.869,-32.100006 a 1.675,1.675 0 0 1 1.653,-1.972 h 26.863 c 0,0 10.383,18.573006 11.745,24.937006 1.362,6.364 3.264,30.793 3.264,30.793 z"
     id="path74-8"
     style="fill:#b0bebf" />
  <path
     inkscape:connector-curvature="0"
     class="cls-8"
     d="m 67.730872,149.34333 h -25.57 a 1.309,1.309 0 0 1 -1.309,-1.309 v 0 -4.233 h 26.879 v 5.537 0 z"
     id="path76-1"
     style="fill:#d0dfe1" />
  <path
     inkscape:connector-curvature="0"
     class="cls-9"
     d="m 84.903872,149.34333 h -37.787 v -3.9 a 1.639,1.639 0 0 1 1.639,-1.642 h 36.148 a 1.639,1.639 0 0 1 1.639,1.639 v 0 2.261 a 1.639,1.639 0 0 1 -1.637,1.641 v 0 z"
     id="path78-7"
     style="fill:#b0bebf" />
  <path
     inkscape:connector-curvature="0"
     class="cls-10"
     d="m 50.919872,86.048324 c 0,0 3.907,-1.237 4.3,-2.937 0.32,-1.381 0.83,-5.671 0.83,-5.671 h 6.814 a 31.86,31.86 0 0 0 0,5.074 c 0.648,3.086 4.519,4.1 4.519,4.1 l 0.552,9.643 -10.043,8.420006 -9.691,-9.736006 z"
     id="path80-6"
     style="fill:#ffe0bc" />
  <path
     inkscape:connector-curvature="0"
     id="_Path_-5"
     data-name=" Path "
     class="cls-10"
     d="m 66.500872,66.931324 c 1.718,2.292 1.368,2.616 1.132,5.773 a 25.478,25.478 0 0 1 -1.357,6.497 c -0.463,1.19 -2.886,6.307 -7.206,4.439 a 13.291,13.291 0 0 1 -5.886,-5.331 17.071,17.071 0 0 1 -0.921,-5.736 c -0.044,-2.1 -0.054,-4.824 0.021,-6.39 0.268,-5.53 11.074,-3.446 14.217,0.748 z"
     style="fill:#ffe0bc;fill-opacity:1" />
  <path
     inkscape:connector-curvature="0"
     class="cls-11"
     d="m 77.746872,131.91833 c 3.72,-0.806 5.792,0.39 8.021,3.064 2.229,2.674 1.337,9.137 0,14.485 -1.337,5.34799 -6.463,40.97999 -6.463,40.97999 h -3.788 c 0,0 -0.973,-14.04 -1.641,-24.291 -0.668,-10.251 1.62,-24.93499 1.62,-24.93499 l -14.465,-9.3 c 0,0 13.375,0.721 16.716,-0.003 z"
     id="path83-8"
     style="fill:#0b0f01;fill-opacity:1" />
  <path
     inkscape:connector-curvature="0"
     class="cls-11"
     d="m 77.568872,126.75533 c 2.84,2.652 11.2,7.123 9.533,12.651 l -11.2,4.746 c 0,0 -11.38,-4.125 -14.871,-12.235 l -3.49,-8.11 7.5,-2.984 z"
     id="path85-7"
     style="fill:#0b5a70" />
  <path
     inkscape:connector-curvature="0"
     class="cls-11"
     d="m 69.388872,133.88233 c 2.06,1.488 7.627,3.938 6.513,10.271 -0.568,3.23 -9.674,22.73999 -14.648,30.93899 -2.535,4.179 -7.05,12.925 -7.05,12.925 l -4.234,1.012 c 0,0 3.262,-10.616 5.49,-20.421 2.228,-9.805 8.716,-21.50699 8.716,-21.50699 a 66.89,66.89 0 0 0 -8.357,-4.794 c -3.566,-1.56 -5.484,-2.2 -0.136,-7.321 5.348,-5.121 9.693,-4.002 13.706,-1.104 z"
     id="path87-2"
     style="fill:#0b0900;fill-opacity:1" />
  <path
     inkscape:connector-curvature="0"
     class="cls-12"
     d="m 77.568872,103.71233 a 26.168,26.168 0 0 0 2.2,6.4 c 0.89,1.553 19.258996,8.323 19.258996,8.323 H 88.297872 c 0,0 -10.213,-1.339 -13.127,-5.256 a 70.742,70.742 0 0 1 -5.616,-9.472 h 8.014 z"
     id="path89-0"
     style="fill:#f7d4b2" />
  <path
     style="fill:#251e3f;fill-opacity:1;stroke:#000000;stroke-width:0;stroke-linecap:butt;stroke-linejoin:miter;stroke-miterlimit:4;stroke-dasharray:none;stroke-opacity:1"
     d="m 77.518122,103.33172 c -2.34382,1.31916 -4.67278,2.45804 -6.98072,2.84811 l 4.19849,6.40539 c 1.10557,1.65987 2.12983,2.12719 3.16681,2.78105 l 1.87497,-5.284 c -1.06348,-2.02788 -1.76766,-4.55596 -2.25955,-6.75055 z"
     id="path1069"
     inkscape:connector-curvature="0"
     sodipodi:nodetypes="cccccc" />
  <path
     inkscape:connector-curvature="0"
     class="cls-11"
     d="m 70.989872,87.957324 c 1.9,0.845 3.655,5.645 5.058,9.735 a 26.27,26.27 0 0 1 1.521,6.020006 c 0,0 -4.909,2.807 -7.513,2.105 0,0 -2.473,-8.884006 -0.77,-13.372006 z"
     id="path91-6"
     style="fill:#251e3f;fill-opacity:1" />
  <path
     inkscape:connector-curvature="0"
     class="cls-11"
     d="m 61.518872,127.07633 c 5.352,-0.214 10.7,-0.344 16.051,-0.321 -2.6,-1.686 -4.9,-2.861 -5.4,-3.361 -1.114,-1.114 -0.736,-11.04 0.083,-14.124 0.819,-3.084 0.769,-6.656 0.176,-8.247 -0.593,-1.591006 -1.444,-13.066006 -1.444,-13.066006 l -3.609,-1.341 c 0,0 1.106,8.325 -7.642,8.325 -8.783,0 -8.821,-8.893 -8.821,-8.893 l -5.6,1.24 c 0,0 -0.413,10.84 -0.205,15.759006 0.208,4.919 2.545,13.439 3.213,17.9 0.52,3.469 -0.443,5.59 -1.106,8.145 a 35.584,35.584 0 0 1 14.304,-2.016 z"
     id="path93-1"
     style="fill:#0b5a70" />
  <path
     inkscape:connector-curvature="0"
     class="cls-13"
     d="m 54.466872,187.30132 c -1.2,-0.24 -1.628,0.24 -2.711,0.962 a 4.569,4.569 0 0 1 -2.285,0.721 v 3.247 h 8.364 z"
     id="path95-8"
     style="fill:#8b4200" />
  <path
     inkscape:connector-curvature="0"
     class="cls-13"
     d="m 80.034872,187.90132 c 0,0 -0.122,1.126 -1.926,1.634 a 3.069,3.069 0 0 1 -3.031,-0.982 l -0.4,3.678 14.257,0.085 z"
     id="path97-9"
     style="fill:#8b4200" />
  <path
     inkscape:connector-curvature="0"
     class="cls-10"
     d="m 80.284872,117.59133 c -1.6,-0.19 -3.138,-1.688 -9.34,-1.762 a 95.52,95.52 0 0 1 -10.469,-2.038 22.021,22.021 0 0 1 -5.912,-2.551 c 0,0 -2.273,-8.474 -3.14,-13.849006 -2.521,-0.277 -5.035,-0.6 -7.533,-1.023 -0.089,6.712006 4.666,18.646006 6.249,19.836006 3.081,2.318 10.322,2.2 12.061,2.234 4.028,0.073 21.192,0.536 21.192,0.536 0,0 1.319,-0.857 -3.108,-1.383 z"
     id="path99-0"
     style="fill:#ffe0bc" />
  <path
     inkscape:connector-curvature="0"
     class="cls-11"
     d="m 53.442872,105.88033 c 0,0 -2.284,-13.411006 -2.945,-14.822006 -3.422,-7.293 -8.122,-3.407 -7.43,2.236 0.294,2.4 0.481,8.612006 1.7,14.477006 a 19.128,19.128 0 0 0 8.675,-1.891 z"
     id="path101-5"
     style="fill:#251e3f;fill-opacity:1" />
  <polygon
     transform="translate(-0.16412788,0.8023252)"
     class="cls-6"
     points="76.794,118.173 83.553,118.173 90.312,94.525 85.173,94.525 "
     id="polygon103-4"
     style="fill:#a6aeba" />
  <polygon
     transform="translate(-0.16412788,0.8023252)"
     class="cls-7"
     points="78.734,118.173 105.113,118.173 111.872,94.525 85.493,94.525 "
     id="polygon105-7"
     style="fill:#d2dceb" />
  <rect
     class="cls-7"
     x="74.688866"
     y="118.44032"
     width="30.26"
     height="1.7640001"
     id="rect107-3"
     style="fill:#d2dceb" />
  <rect
     class="cls-6"
     x="59.558857"
     y="118.44032"
     width="15.13"
     height="1.7640001"
     id="rect109-3"
     style="fill:#a6aeba" />
  <ellipse
     class="cls-6"
     cx="-63.629021"
     cy="130.63354"
     rx="3.5569999"
     ry="2.803"
     transform="rotate(-67.133)"
     id="ellipse111-2"
     style="fill:#a6aeba" />
  <path
     inkscape:connector-curvature="0"
     class="cls-11"
     d="m 47.222872,129.08833 c -1,4.8 1.361,15.273 16.953,18.01 l 8.9,3.6 a 11.719,11.719 0 0 0 2.425,-9.479 c -1.115,-5.5 -7.359,-7.59 -11.473,-14.24 0,0 -6.463,-2.7 -10.616,-1.256 a 18.431,18.431 0 0 0 -6.189,3.365 z"
     id="path113-2"
     style="fill:#0b5a70" />
  <rect
     class="cls-6"
     x="206.02887"
     y="159.15831"
     width="2.6070001"
     height="25.264"
     id="rect119-3"
     style="fill:#a6aeba" />
  <rect
     class="cls-7"
     x="205.23688"
     y="155.48032"
     width="4.191"
     height="3.678"
     id="rect121-0"
     style="fill:#d2dceb" />
  <rect
     class="cls-7"
     x="205.74988"
     y="174.69933"
     width="3.165"
     height="7.8839998"
     id="rect123-0"
     style="fill:#d2dceb" />
  <rect
     class="cls-7"
     x="205.23688"
     y="182.5843"
     width="4.191"
     height="3.678"
     id="rect125-1"
     style="fill:#d2dceb" />
  <rect
     class="cls-6"
     x="202.25287"
     y="148.5173"
     width="10.16"
     height="6.9629998"
     id="rect127-0"
     style="fill:#a6aeba" />
  <rect
     class="cls-6"
     x="192.65286"
     y="146.43532"
     width="28.344"
     height="5.2140002"
     rx="0.54100001"
     ry="0.54100001"
     id="rect129-1"
     style="fill:#a6aeba" />
  <polygon
     transform="translate(-0.16412788,0.8023252)"
     class="cls-6"
     points="217.594,188.973 209.593,185.006 209.593,182.24 218.645,188.307 "
     id="polygon131-0"
     style="fill:#a6aeba" />
  <circle
     class="cls-6"
     cx="218.48087"
     cy="190.55331"
     r="1.875"
     id="circle133-6"
     style="fill:#a6aeba" />
  <circle
     class="cls-6"
     cx="207.33286"
     cy="190.55331"
     r="1.875"
     id="circle135-1"
     style="fill:#a6aeba" />
  <polygon
     transform="translate(-0.16412788,0.8023252)"
     class="cls-6"
     points="197.399,188.973 205.401,185.006 205.401,182.24 196.349,188.307 "
     id="polygon137-4"
     style="fill:#a6aeba" />
  <circle
     class="cls-6"
     cx="196.18488"
     cy="190.55331"
     r="1.875"
     id="circle139-7"
     style="fill:#a6aeba" />
  <rect
     class="cls-6"
     x="206.82486"
     y="184.42331"
     width="1.015"
     height="6.1069999"
     id="rect141-4"
     style="fill:#a6aeba" />
  <path
     inkscape:connector-curvature="0"
     class="cls-8"
     d="m 225.70987,149.29133 a 1.983,1.983 0 0 0 1.994,-1.509 c 0.685,-2.824 1.929,-8.1 1.957,-21.268 0.031,-14.535 7.65,-25.588 8.691,-30.247006 a 3.019,3.019 0 0 0 -1.442,-3.278 v 0 a 4.089,4.089 0 0 0 -2.04,-0.545 h -29.856 c 0,0 -10.383,18.573006 -11.745,24.937006 -1.362,6.364 -3.264,30.793 -3.264,30.793 z"
     id="path143-9"
     style="fill:#d0dfe1" />
  <path
     inkscape:connector-curvature="0"
     class="cls-9"
     d="m 224.88587,149.34033 c 0,0 2.359,-4.625 2.4,-22.825 0.032,-14.986 7.608,-27.332006 8.467,-32.100006 a 1.675,1.675 0 0 0 -1.653,-1.972 h -31.465 c 0,0 -10.383,18.573006 -11.745,24.937006 -1.362,6.364 -3.264,30.793 -3.264,30.793 z"
     id="path145-1"
     style="fill:#b0bebf" />
  <path
     inkscape:connector-curvature="0"
     class="cls-8"
     d="m 192.11487,143.80133 h 35.148 v 4.228 a 1.309,1.309 0 0 1 -1.309,1.309 h -33.839 z"
     id="path147-9"
     style="fill:#d0dfe1" />
  <path
     inkscape:connector-curvature="0"
     class="cls-9"
     d="m 183.21087,143.80133 h 11.657 a 1.639,1.639 0 0 1 1.639,1.639 v 0 3.9 h -13.3 a 1.638,1.638 0 0 1 -1.631,-1.639 v -2.259 a 1.639,1.639 0 0 1 1.635,-1.641 z"
     id="path149-9"
     style="fill:#b0bebf" />
  <path
     inkscape:connector-curvature="0"
     class="cls-12"
     d="m 198.34187,86.981324 c -2.433,2.422 -2.6,14.593006 -5.059,20.910006 0,0 -16.775,6.558 -24.421,8.484 l 2.654,2.8 c 0,0 22.729,-5.463 25.611,-7.381 4.406,-2.931 6.967,-14.791006 7.387,-20.724006 0.42,-5.933 -3.629,-6.62 -6.172,-4.089 z"
     id="path151-4"
     style="fill:#000077;fill-opacity:1" />
  <path
     inkscape:connector-curvature="0"
     class="cls-12"
     d="m 170.72687,116.81533 -1.865,-0.439 c 0,0 -3.836,-0.351 -5.064,-0.526 -1.228,-0.175 -2.7,1.228 -4.374,1.754 a 15.973,15.973 0 0 0 -3.3,1.569 h 1.34 l 2.733,0.448 2.464,-0.448 a 24.252,24.252 0 0 1 4.626,0 20,20 0 0 0 4.233,0 z"
     id="path153-3"
     style="fill:#f7d4b2" />
  <path
     inkscape:connector-curvature="0"
     class="cls-12"
     d="m 187.32887,129.08133 c -5.205,1.725 -11.589,4.491 -13.458,6.23 -1.869,1.739 -5.552,4.208 -2.582,13.765 1.9,6.10599 10.171,37.03899 10.171,37.03899 l 4.192,-0.746 c 0,0 -1.489,-17.923 -2.981,-31.332 -0.723,-6.49999 -0.969,-8.31299 -0.969,-8.31299 l 5.627,-2.291 c 7.133,-2.931 4.688,-15.182 4.688,-15.182 z"
     id="path155-7"
     style="fill:#f7d4b2" />
  <path
     inkscape:connector-curvature="0"
     class="cls-10"
     d="m 175.67587,133.44433 c -1.869,1.739 -3.191,1.157 -6,10.763 -1.793,6.138 -8.332,37.09299 -8.332,37.09299 l 3.906,1.7 c 5.282,-14.8 5.275,-14.782 11.447,-26.791 a 53.44,53.44 0 0 0 4.245,-11.56299 l 11.409,-0.685 c 7.133,-2.931 4.688,-13.343 4.688,-13.343 0,0 -19.493,1.083 -21.363,2.826 z"
     id="path157-0"
     style="fill:#ffe0bc" />
  <path
     style="fill:#ffd04d;fill-opacity:1;stroke:#000000;stroke-width:0;stroke-linecap:butt;stroke-linejoin:miter;stroke-miterlimit:4;stroke-dasharray:none;stroke-opacity:1"
     d="m 186.23787,129.38533 -12.40954,4.39734 c -3.74721,3.35772 -4.53844,7.53924 -4.72877,11.88823 -2.83332,10.53247 -7.06871,19.24226 -8.3969,31.73141 0,-0.54539 6.0988,2.26187 6.93849,4.33103 0.44653,1.10035 1.72357,1.4584 2.91681,1.59099 1.19325,0.13258 2.51907,0.26516 3.62393,0.39774 1.10485,0.13259 2.2097,-0.26516 4.19844,-0.26516 1.98874,0 3.53554,-0.0884 4.99394,0.13258 1.45841,0.22097 4.81717,1.41422 4.33103,0.22097 -0.48613,-1.19324 -1.19324,-6.45235 -1.45841,-7.86656 -0.26516,-1.41421 -1.54679,-11.13693 -1.67937,-11.84404 -0.13259,-0.70711 -0.83969,-10.56241 -1.5468,-12.28597 -0.70711,-1.72357 -1.31885,-6.08956 -1.31885,-6.08956 l 3.27462,-1.32724 7.37738,-0.44576 c 3.99469,-7.11679 0.22267,-11.47804 -6.116,-14.566 z"
     id="path1092"
     inkscape:connector-curvature="0"
     sodipodi:nodetypes="ccccsccsccccscccc" />
  <path
     inkscape:connector-curvature="0"
     class="cls-15"
     d="m 218.89587,124.24033 c 0,5 3.618,10.52 -0.575,16.2 -3.792,5.141 -25.967,3.511 -25.967,3.511 0,0 3.128,-5.417 0.158,-9.518 -1.9,-2.621 -6.274,-5.048 -6.274,-5.048 l 12.4,-4.007 9.959,-7.736 z"
     id="path159-5"
     style="fill:#ffd04d" />
  <path
     class="cls-10"
     d="m 194.63151,65.548438 c -1.03502,1.229501 -0.0439,5.912372 0.13735,6.607881 0.3505,1.34487 -0.32963,3.196263 0.0582,3.508308 0.39189,0.172735 0.81975,0.248128 1.24708,0.21975 0.0353,0.0083 0.13702,1.221366 1.01639,1.900618 0.12832,0.09911 0.0729,0.20374 0.18579,0.380465 0.41039,0.642347 0.88608,1.69755 1.00301,2.030412 0.48895,1.121823 3.11935,-0.865815 3.91485,-0.02417 0.57684,0.610905 0.60211,1.741519 0.79769,3.144622 l -1.53822,6.21123 12.55212,-2.41725 c -1.73023,-2.53154 -3.26769,-5.189582 -4.59937,-7.951652 -0.93613,-2.495261 0.23404,-5.223457 -0.078,-8.575743 -0.31204,-3.352285 -1.80854,-7.660484 -6.54855,-8.107675 -3.05548,-0.371653 -6.0993,0.776349 -8.14833,3.073204 z"
     id="path163-4"
     inkscape:connector-curvature="0"
     style="fill:#ffe0bc;stroke-width:1.09874988"
     sodipodi:nodetypes="ccccssccccccsccc" />
  <path
     style="fill:#005270;fill-opacity:1;stroke:#000000;stroke-width:0;stroke-linecap:butt;stroke-linejoin:miter;stroke-miterlimit:4;stroke-dasharray:none;stroke-opacity:1"
     d="m 219.58777,121.79882 c -0.48931,-2.17721 -1.33498,-3.8896 -2.5019,-5.18298 l 0.53125,-1.5 2,1.6875 c 0.21266,1.65126 0.22909,3.31478 -0.0293,4.99548 z"
     id="path1090"
     inkscape:connector-curvature="0"
     sodipodi:nodetypes="ccccc" />
  <path
     inkscape:connector-curvature="0"
     class="cls-17"
     d="m 198.99587,124.73233 a 24.212,24.212 0 0 1 7.654,0 c 4.752,0.636 11.795,-0.7 11.795,-0.7 0,0 -2.886,-14.881 -2.709,-21.631 0.177,-6.750006 0.711,-14.031006 0.711,-14.031006 l -12.655,-2.131 c 0,0 -3.064,1.1 -4.8,6.039 -1.736,4.939 -1.457,26.267006 0.004,32.454006 z"
     id="path165-4"
     style="fill:#e4ddd7" />
  <path
     inkscape:connector-curvature="0"
     class="cls-18"
     d="m 202.99187,83.312324 c -0.932,0.933 -4,2.131 -4,3.463 0,1.332 -2.4,12.788 -2.264,15.186006 0.136,2.398 1.014,11.508 0.481,14.305 a 69.889,69.889 0 0 0 -0.533,9 l 2.316,-0.533 c 0,0 -0.666,-15.844 0,-21.7 0.666,-5.856006 4.8,-16.651006 4.8,-16.651006 l -1.554,-0.533 z"
     id="path167-3"
     style="fill:#000077;fill-opacity:1" />
  <path
     class="cls-18"
     d="m 206.5845,85.992136 -4.34663,-0.142812 c 0,0 -1.46413,6.293333 -1.46413,18.411856 a 208.50429,195.72897 0 0 0 2.22594,23.95459 26.730616,25.092798 0 0 0 7.94288,1.36691 18.944432,17.783685 0 0 0 8.05498,-1.43025 166.53418,156.33042 0 0 1 0,-19.70357 c 0.76181,-9.726171 3.53222,-11.93813 2.9969,-18.308773 -0.88763,-10.565841 -11.07247,-6.865649 -11.07247,-6.865649 z"
     id="path169-1"
     inkscape:connector-curvature="0"
     style="fill:#000077;stroke-width:1.10825288;fill-opacity:1" />
  <path
     style="fill:#0b5a70;fill-opacity:1;stroke:#000000;stroke-width:0;stroke-linecap:butt;stroke-linejoin:miter;stroke-miterlimit:4;stroke-dasharray:none;stroke-opacity:1"
     d="m 194.97604,109.96565 c 0,0 2.67295,3.39931 2.67295,3.57609 0,0.17677 1.14905,3.84489 1.63519,4.59619 0.48613,0.7513 0.83969,1.5026 2.03293,0.97227 1.19324,-0.53033 3.93328,-5.12652 4.24264,-5.70105 0.30936,-0.57452 1.53812,-5.38382 1.53812,-5.38382 0,0 -4.54333,-1.90821 -4.54333,-1.90821 z"
     id="path1088"
     inkscape:connector-curvature="0" />
  <path
     inkscape:connector-curvature="0"
     class="cls-15"
     d="m 203.79087,86.243324 c 0,0 6.128,-2.931 7.06,-4.8 a 6.343,6.343 0 0 1 0.533,2.4 c -0.133,0.8 -5.994,6.394 -5.994,6.394 z"
     id="path171-2"
     style="fill:#ffd04d" />
  <path
     inkscape:connector-curvature="0"
     class="cls-15"
     d="m 202.99187,83.312324 a 3.327,3.327 0 0 0 0.8,2.931 l -2.264,3.2 c 0,0 -0.666,-2.531 0,-3.6 0.666,-1.069 1.464,-2.531 1.464,-2.531 z"
     id="path175-7"
     style="fill:#ffd04d" />
  <path
     inkscape:connector-curvature="0"
     class="cls-18"
     d="m 181.16787,183.87332 c 0,0 0.122,1.126 1.926,1.634 a 3.069,3.069 0 0 0 3.031,-0.982 l 0.4,3.678 -5.761,4.062 h -4.788 l 2.589,-2.873 z"
     id="path177-3"
     style="fill:#133a50" />
  <path
     inkscape:connector-curvature="0"
     class="cls-18"
     d="m 161.96387,178.77832 a 1.978,1.978 0 0 0 0.715,2.61 3.069,3.069 0 0 0 3.186,-0.013 l -0.739,3.626 -13.6,-4.256 z"
     id="path179-0"
     style="fill:#133a50" />
  <path
     inkscape:connector-curvature="0"
     class="cls-10"
     d="m 214.73487,88.125324 c -1.315,3.171 -5.176,13.585006 -7.637,19.900006 0,0 -17.876,5.726 -25.522,7.652 l 2.654,2.8 c 0,0 21.8,-3.338 26.531,-5.542 4.8,-2.235 9.34,-17.609006 10.146,-21.643006 1.163,-5.832 -4.756,-6.591 -6.172,-3.167 z"
     id="path181-0"
     style="fill:#000077;fill-opacity:1" />
  <path
     inkscape:connector-curvature="0"
     class="cls-10"
     d="m 183.43487,116.11933 -1.865,-0.438 c 0,0 -3.836,-0.351 -5.064,-0.526 -1.228,-0.175 -2.7,1.228 -4.374,1.754 a 15.966,15.966 0 0 0 -3.3,1.569 h 1.34 l 2.733,0.448 2.465,-0.448 a 24.251,24.251 0 0 1 4.626,0 20.007,20.007 0 0 0 4.233,0 z"
     id="path183-2"
     style="fill:#ffe0bc" />
  <path
     inkscape:connector-curvature="0"
     class="cls-19"
     d="m 146.00487,52.837323 4.85,11.245001 -1.244,0.536 -4.852,-11.251 a 0.252,0.252 0 0 1 0.131,-0.331 v 0 l 0.786,-0.335001 a 0.252,0.252 0 0 1 0.329,0.136 z"
     id="path185-8"
     style="fill:#364469" />
  <path
     inkscape:connector-curvature="0"
     class="cls-19"
     d="m 145.97587,55.585324 0.809,-0.349 -1.361,-3.155001 a 0.441,0.441 0 0 0 -0.579,-0.23 v 0 a 0.441,0.441 0 0 0 -0.23,0.579 z"
     id="path187-9"
     style="fill:#364469" />
  <path
     inkscape:connector-curvature="0"
     class="cls-12"
     d="m 136.69087,66.115324 c 0,0 4.768,13.1 6.5,13.034 1.3,-0.047 10.019,-11.961 11.422,-14.024 1.403,-2.063 4.125,-6.909 4.125,-6.909 l -3.547,-1.1 c 0,0 -6.1,7.352 -7.672,8.672 -1.572,1.32 -2.227,1.815 -2.227,1.815 l -1.816,-4.959 z"
     id="path189-6"
     style="fill:#f7d4b2" />
  <path
     inkscape:connector-curvature="0"
     class="cls-19"
     d="m 139.32787,52.471323 c 1.92,0.511001 2.583,2.219001 3.408,5.746001 a 70.237,70.237 0 0 0 2.024,6.855 l -6.314,2.941 c 0,0 -1.139,-6.269 -1.559,-10.229 -0.42,-3.96 0.766,-5.759001 2.441,-5.313001 z"
     id="path191-7"
     style="fill:#364469" />
  <path
     inkscape:connector-curvature="0"
     class="cls-18"
     d="m 113.39787,187.31532 v 4.638 h 8.913 c 0,0 -0.335,-1.679 -4.562,-2.453 l -0.622,-2.184 h -3.729 z"
     id="path193-6"
     style="fill:#133a50" />
  <path
     inkscape:connector-curvature="0"
     class="cls-18"
     d="m 132.23487,187.31532 v 4.638 h 8.913 c 0,0 -0.335,-1.679 -4.562,-2.453 l -0.622,-2.184 h -3.729 z"
     id="path195-4"
     style="fill:#133a50" />
  <path
     inkscape:connector-curvature="0"
     class="cls-18"
     d="m 115.34587,93.801324 c 0,0 -1.622,14.746006 -1.679,30.587006 -0.057,15.841 -1,62.91199 -1,62.91199 h 6.4 c 0,0 6.6,-45.48699 8.994,-55.66999 2.394,-10.183 8.632,-37.638006 8.632,-37.638006 z"
     id="path197-7"
     style="fill:#133a50" />
  <path
     inkscape:connector-curvature="0"
     class="cls-10"
     d="m 125.18087,40.250324 c 0,0 -0.414,3.225 -0.754,4.866 a 13.118,13.118 0 0 1 -0.873,3.007 36.8,36.8 0 0 1 -3.957,4.493999 c 0,0 10.607,5.600001 13.725,5.600001 3.118,0 2.025,-6.255001 2.025,-6.255001 0,0 -3.4,-2.686999 -3.907,-4.044999 a 30.536,30.536 0 0 1 -0.789,-5.29 z"
     id="path199-3"
     style="fill:#ffe0bc" />
  <path
     inkscape:connector-curvature="0"
     class="cls-18"
     d="m 129.25687,109.98433 c 0,0 1.2,24.138 1.439,28.89 0.239,4.752 0,48.39999 0,48.39999 0,0 5.995,0.162 5.995,0 0,-0.162 5.652,-46.02999 6.384,-57.74099 0.732,-11.711 0.3,-25.593 1.275,-27.213 0.975,-1.62001 -2.624,-8.445006 -2.624,-8.445006 l -8.485,2.263 z"
     id="path201-1"
     style="fill:#133a50" />
  <path
     inkscape:connector-curvature="0"
     class="cls-20"
     d="m 121.75687,49.464324 -10.9,4.7 c 0,0 2.156,8.826 2.276,12.334 0.12,3.508 1.378,31.219 1.378,31.219 0,0 3.348,5.186006 19.456,3.120996 6.211,-0.79999 9.265,-3.823996 9.265,-3.823996 0,0 -1.741,-30.516 -2.221,-34.024 -0.48,-3.508 -1.678,-10.523001 -1.678,-10.523001 l -5.257,-1.616999 -2.144,3.2 z"
     id="path203-7"
     style="fill:#e9f2f4" />
  <path
     inkscape:connector-curvature="0"
     class="cls-21"
     d="M 134.74487,95.431324"
     id="path205-5"
     style="fill:none;stroke:#aebfde;stroke-width:0.25px;stroke-miterlimit:10" />
  <path
     inkscape:connector-curvature="0"
     class="cls-21"
     d="M 131.92987,54.052324"
     id="path207-4"
     style="fill:none;stroke:#aebfde;stroke-width:0.25px;stroke-miterlimit:10" />
  <polygon
     transform="translate(-0.16412788,0.8023252)"
     class="cls-19"
     points="122.407,46.761 132.094,53.25 129.431,56.311 121.921,48.662 "
     id="polygon209-6"
     style="fill:#364469" />
  <polygon
     transform="translate(-0.16412788,0.8023252)"
     class="cls-19"
     points="132.094,53.25 134.736,55.371 134.238,50.052 133.249,48.662 "
     id="polygon211-5"
     style="fill:#364469" />
  <path
     inkscape:connector-curvature="0"
     id="_Path_2-6"
     data-name=" Path 2"
     class="cls-22"
     d="m 142.13487,73.071324 9.312,2.69 a 2.177,2.177 0 0 0 2.484,-1.1 l 9.068,-19.375 a 1.449,1.449 0 0 0 -0.961,-2.071 l -9.23,-2.727 c -1.681,-0.165 -2.521,0.163 -2.947,1.054999 l -9.085,19.228001 c -0.429,0.902 -0.266,1.53 1.359,2.3 z"
     style="fill:#97a3cc" />
  <path
     inkscape:connector-curvature="0"
     id="_Path_3-0"
     data-name=" Path 3"
     class="cls-23"
     d="m 142.66487,73.266324 9.357,2.708 a 2.186,2.186 0 0 0 2.5,-1.1 l 9.1,-19.462 a 1.455,1.455 0 0 0 -0.97,-2.078 l -9.276,-2.733 a 2.25,2.25 0 0 0 -2.589,1.099999 l -9.165,19.400001 a 1.519,1.519 0 0 0 1.043,2.165 z"
     style="fill:url(#linearGradient1319)" />
  <path
     inkscape:connector-curvature="0"
     class="cls-10"
     d="m 115.63487,68.054324 c 0,0 8.658,14.37 9.813,14.865 1.155,0.495 16.093,-9.231 18.9,-11.046 2.807,-1.815 5.152,-3.6 5.5,-3.887 a 14.96,14.96 0 0 0 1.155,-3.207 4.529,4.529 0 0 1 -0.392,-0.516 l -0.371,0.2 0.2,-1.165 -0.351,-0.66 -0.34,0.113 -0.114,-1.179 -0.516,-0.887 c 0,0 -1.471,1.664 -2.379,2.654 a 13.416,13.416 0 0 1 -1.98,1.732 14.313,14.313 0 0 0 0,-1.9 5.382,5.382 0 0 1 0.165,-1.4 l -1.447,0.87 c 0,0 -1.275,4.022 -1.523,4.34 a 7.343,7.343 0 0 1 -4.372,4.112 101.767,101.767 0 0 1 -9.647,3.252 c 0.245,-0.035 -5.648,-10.739 -5.648,-10.739 z"
     id="path215-1"
     style="fill:#ffe0bc" />
  <path
     inkscape:connector-curvature="0"
     class="cls-19"
     d="m 110.44387,59.601324 c 0.824,3.914 6.555,12.456 6.555,12.456 l 7.029,-5.267 c 0,0 -2.752,-5.5 -4.288,-8.385 -1.7,-3.191 -3.285,-7.067001 -6.293,-5.936001 -2.904,1.089001 -3.663,3.994001 -3.003,7.132001 z"
     id="path217-9"
     style="fill:#364469" />
  <path
     inkscape:connector-curvature="0"
     class="cls-10"
     d="m 137.50387,32.001324 c 0.75,0.679 1.994,2.045 1.894,2.842 a 31.19,31.19 0 0 1 -0.664,4.481 c -0.4,1.321 -1.171,4.786 -1.736,6.307 -0.565,1.521 -1.217,3.608 -1.685,3.8 a 14.519,14.519 0 0 1 -5.345,-1.1 c -0.773,-0.567 -4.868,-5.068 -4,-8.4 0,0 -1.074,0.14 -1.733,-3.151 -0.172,-0.858 3.316,-3.3 3.859,-4.148 1.318,-2.068 6.127,-0.44 7.5,-0.334 a 2.877,2.877 0 0 0 1.91,-0.297 z"
     id="path219-5"
     style="fill:#ffe0bc" />
  <path
     inkscape:connector-curvature="0"
     class="cls-13"
     d="m 139.39787,34.839324 a 1.141,1.141 0 0 0 -1.327,-0.918 h -0.009 a 11.708,11.708 0 0 1 -4.757,-0.331 11.958,11.958 0 0 1 -2.958,-1.364 7.158,7.158 0 0 1 -0.966,2.547 4.85,4.85 0 0 0 -1.086,2.1 1.5,1.5 0 0 1 -1.043,0.853 c 0,0 -0.386,-1.852 -1.216,-1.982 -1.645,-0.258 -1.446,1.963 -0.769,2.686 a 13.668,13.668 0 0 0 1.389,1.278 8.459,8.459 0 0 1 -0.527,1.645 7.923,7.923 0 0 1 -1.35,1.656 c 0,0 -0.434,-4.417 -1.479,-6.443 -1.045,-2.026 -0.98,-5.753 2.037,-6.537 a 4.281,4.281 0 0 1 4.654,-3.2 c 3.965,0.169 7.132,1.753 8.88,1.585 a 5.375,5.375 0 0 0 2.267,-0.529 c 0,0 0.873,2.867 -0.264,4.387 a 10.046,10.046 0 0 0 -1.476,2.567 z"
     id="path221-0"
     style="fill:#8b4200" />
  <polygon
     transform="translate(-0.16412788,0.8023252)"
     class="cls-6"
     points="171.406,118.173 167.699,118.173 163.992,94.525 166.811,94.525 "
     id="polygon223-1"
     style="fill:#a6aeba" />
  <polygon
     transform="translate(-0.16412788,0.8023252)"
     class="cls-7"
     points="170.342,118.173 155.875,118.173 152.169,94.525 166.635,94.525 "
     id="polygon225-3"
     style="fill:#d2dceb" />
  <rect
     class="cls-7"
     x="155.51688"
     y="118.43932"
     width="15.725"
     height="1.7640001"
     id="rect227-3"
     style="fill:#d2dceb" />
  <rect
     class="cls-6"
     x="171.24188"
     y="118.43932"
     width="19.826"
     height="1.7640001"
     id="rect229-9"
     style="fill:#a6aeba" />
  <path
     inkscape:connector-curvature="0"
     class="cls-6"
     d="m 162.23487,108.30133 c 0.419,1.81 0.124,3.766 -0.658,4.367 -0.782,0.601 -1.756,-0.378 -2.174,-2.189 -0.418,-1.811 -0.124,-3.766 0.658,-4.367 0.782,-0.601 1.753,0.379 2.174,2.189 z"
     id="path231-6"
     style="fill:#a6aeba" />
  <rect
     class="cls-24"
     x="29.633842"
     y="120.38734"
     width="178.065"
     height="3.4219999"
     id="rect233-5"
     style="fill:#dbdbdb" />
  <path
     style="fill:#0b5a70;fill-opacity:1;stroke:#000000;stroke-width:0;stroke-linecap:butt;stroke-linejoin:miter;stroke-miterlimit:4;stroke-dasharray:none;stroke-opacity:1"
     d="m 48.495322,123.81708 h 24.11441 c 2.31551,1.57635 16.84918,8.98182 14.49214,15.58925 0.0802,15.01504 0.21472,30.55848 -2.86555,43.33317 -2.88218,1.45121 -3.32252,3.34638 -4.20145,5.16182 -10.24716,-1.10586 -20.24526,-3.25783 -31.39602,-0.5686 4.61397,-13.43442 8.40565,-27.92546 15.53702,-40.23139 -5.3649,-0.38812 -22.52987,-6.33997 -15.68055,-23.28425 z"
     id="path1071"
     inkscape:connector-curvature="0"
     sodipodi:nodetypes="cccccccc" />
  <polygon
     transform="translate(-0.16412788,0.8023252)"
     class="cls-24"
     points="48.801,191.267 50.518,191.267 64.521,123.007 60.974,123.007 "
     id="polygon235-1"
     style="fill:#dbdbdb" />
  <polygon
     transform="translate(-0.16412788,0.8023252)"
     class="cls-24"
     points="180.928,191.267 179.21,191.267 165.208,123.007 168.755,123.007 "
     id="polygon237-7"
     style="fill:#dbdbdb" />
  <rect
     class="cls-20"
     x="164.31787"
     y="28.474325"
     width="24.049"
     height="23.809999"
     id="rect239-9"
     style="fill:#e9f2f4" />
  <rect
     class="cls-3"
     x="167.92087"
     y="32.090324"
     width="8.4219999"
     height="17.011999"
     id="rect241-4"
     style="fill:#ffffff" />
  <rect
     class="cls-25"
     x="164.31787"
     y="23.924324"
     width="24.049"
     height="4.5500002"
     id="rect243-9"
     style="fill:none;stroke:#e9f2f4;stroke-miterlimit:10" />
  <circle
     class="cls-26"
     cx="182.47687"
     cy="34.868328"
     r="2.9909999"
     id="circle245-5"
     style="fill:#00a0b4" />
  <polygon
     transform="translate(-0.16412788,0.8023252)"
     class="cls-3"
     points="182.405,35.243 181.021,33.462 182.275,33.986 185.158,31.465 "
     id="polygon247-0"
     style="fill:#ffffff" />
  <circle
     class="cls-26"
     cx="182.47687"
     cy="43.743328"
     r="2.9909999"
     id="circle249-6"
     style="fill:#00a0b4" />
  <polygon
     transform="translate(-0.16412788,0.8023252)"
     class="cls-3"
     points="182.405,44.119 181.021,42.337 182.275,42.862 185.158,40.34 "
     id="polygon251-8"
     style="fill:#ffffff" />
  <path
     style="fill:#ec5d7d;fill-opacity:1;stroke:#000000;stroke-width:0;stroke-linecap:butt;stroke-linejoin:miter;stroke-miterlimit:4;stroke-dasharray:none;stroke-opacity:1"
     d="m 66.563182,78.279587 c -0.13796,-3.315101 0.42577,-7.25212 -1.88393,-10.65771 -6.46045,3.297494 -9.01238,8.71795 -8.64638,14.063447 2.17764,1.504938 4.27615,3.40556 7.09896,1.684667 0.89919,1.740789 2.49163,2.595767 4.24404,3.246333 0.26348,4.534132 -1.50464,7.544557 -6.21331,8.349577 -9.22584,-1.395356 -8.57214,-5.296382 -11.40459,-8.443351 0.96495,-4.483056 1.85072,-9.855753 0.39974,-14.927246 0.01,-1.830382 -0.28803,-4.910633 2.59283,-7.826514 1.79901,-1.59268 5.9396,-2.525684 10.96272,-0.894254 1.39803,0.501528 3.15628,2.160507 4.13164,4.410759 0.88551,3.853578 0.50955,7.905507 -1.28172,10.994292 z"
     id="path1063"
     inkscape:connector-curvature="0"
     sodipodi:nodetypes="cccccccccccc" />
  <path
     style="fill:#ec5d7d;fill-opacity:1;stroke:#000000;stroke-width:0;stroke-linecap:butt;stroke-linejoin:miter;stroke-miterlimit:4;stroke-dasharray:none;stroke-opacity:1"
     d="m 43.073522,93.621171 c -1.22093,-1.989014 -1.04754,-4.916235 -0.68511,-5.658448 0.81521,-0.978913 4.63447,-2.100531 7.31574,-1.655481 l 17.67172,0.309082 2.8988,0.255308 c 2.66736,1.26871 3.50851,2.465652 4.26286,3.806131 0.51066,1.213028 0.32777,2.271935 0.45674,3.400144 -1.9774,6.416773 -6.21778,11.965543 -10.24325,13.770553 -7.14967,-0.0167 -12.16942,-8.632375 -15.24724,-15.28477 -1.07785,-2.329665 -3.82524,-2.692795 -6.16353,-2.383803 -0.48251,1.214759 -0.29246,2.023531 -0.26673,3.441284 z"
     id="path1065"
     inkscape:connector-curvature="0"
     sodipodi:nodetypes="ccccccccscc" />
  <path
     style="fill:#251e3f;fill-opacity:1;stroke:#000000;stroke-width:0;stroke-linecap:butt;stroke-linejoin:miter;stroke-miterlimit:4;stroke-dasharray:none;stroke-opacity:1"
     d="m 44.767872,107.77133 c 1.28154,3.56044 2.8929,6.37128 4.69995,8.73738 6.29285,2.78106 16.65369,1.96478 25.75931,1.93162 0.92406,-0.22377 1.34738,-1.29406 1.45081,-1.97648 -3.16357,-0.78761 -5.76113,-0.65008 -5.76113,-0.65008 -3.11621,-0.43613 -12.21239,-2.1928 -16.15558,-4.71698 l -1.31836,-5.21646 c -3.02943,-0.093 -5.91621,0.56309 -8.675,1.891 z"
     id="path1067"
     inkscape:connector-curvature="0"
     sodipodi:nodetypes="ccccsccc" />
  <path
     style="fill:#ec5d7d;fill-opacity:1;stroke:#000000;stroke-width:0;stroke-linecap:butt;stroke-linejoin:miter;stroke-miterlimit:4;stroke-dasharray:none;stroke-opacity:1"
     d="m 194.2233,69.047155 c 0,0 0.14428,-1.367928 0.44258,-1.489462 0.33146,-0.08839 1.70149,0.408796 1.86721,0.519282 0.16573,0.110485 1.14905,0.486136 1.41422,0.508233 0.26516,0.0221 1.00541,-0.298311 1.00541,-0.298311 l -4.552,-2.905767 c -0.59759,1.062469 -0.34774,2.376029 -0.17742,3.666025 z"
     id="path1086"
     inkscape:connector-curvature="0"
     sodipodi:nodetypes="ccccccc" />
  <path
     style="fill:#0b5a70;fill-opacity:1;stroke:#000000;stroke-width:0;stroke-linecap:butt;stroke-linejoin:miter;stroke-miterlimit:4;stroke-dasharray:none;stroke-opacity:1"
     d="m 194.2233,69.047155 c 0.0839,-0.415132 -0.26333,-2.503887 0.0899,-2.8398 6.05959,2.716503 10.47586,10.326899 7.59876,13.788171 -0.48772,-0.147097 -1.30852,0.114816 -1.30852,0.114816 0.80238,1.039981 1.7071,2.047644 1.89363,3.282105 -1.91159,1.21979 -3.81784,1.482452 -5.19912,3.656804 -0.91685,1.831457 -0.84207,3.993457 -1.11647,6.039062 -0.79566,4.991186 -1.43178,10.035557 -2.89861,14.803017 1.12176,0.21369 1.36822,1.17765 1.69317,2.07432 4.63448,0.96516 8.26451,-0.79604 12.12183,-1.94032 2.0734,1.69838 4.04513,3.45776 4.95921,5.85173 2.51445,1.76522 4.22413,1.34672 6.06449,2.83488 2.15884,1.69924 1.38952,3.13306 1.4662,5.08688 4.77973,-8.92012 3.03007,-24.344923 2.37345,-34.476327 -1.37823,-2.336627 -1.48126,-3.314379 -5.64946,-6.505121 -1.49367,-2.876847 -1.81161,-5.981628 -3.82749,-10.953672 -1.85936,-7.138 -7.5773,-10.843587 -17.136,-6.774396 -0.70177,0.278107 -0.93126,0.317779 -1.5913,1.274038 -0.7694,1.309442 0.38556,4.061898 0.46633,4.683813 z"
     id="path1084"
     inkscape:connector-curvature="0"
     sodipodi:nodetypes="ccccccccccccccccccc" />
</svg>
