<?xml version="1.0" encoding="UTF-8" standalone="no"?>
<svg
   xmlns:dc="http://purl.org/dc/elements/1.1/"
   xmlns:cc="http://creativecommons.org/ns#"
   xmlns:rdf="http://www.w3.org/1999/02/22-rdf-syntax-ns#"
   xmlns:svg="http://www.w3.org/2000/svg"
   xmlns="http://www.w3.org/2000/svg"
   xmlns:sodipodi="http://sodipodi.sourceforge.net/DTD/sodipodi-0.dtd"
   xmlns:inkscape="http://www.inkscape.org/namespaces/inkscape"
   id="Layer_1"
   data-name="Layer 1"
   viewBox="0 0 216.395 179.826"
   version="1.1"
   sodipodi:docname="testimonials-2-men-talking.svg"
   inkscape:version="0.92.4 (5da689c313, 2019-01-14)">
  <metadata
     id="metadata217">
    <rdf:RDF>
      <cc:Work
         rdf:about="">
        <dc:format>image/svg+xml</dc:format>
        <dc:type
           rdf:resource="http://purl.org/dc/dcmitype/StillImage" />
      </cc:Work>
    </rdf:RDF>
  </metadata>
  <sodipodi:namedview
     pagecolor="#ffffff"
     bordercolor="#666666"
     borderopacity="1"
     objecttolerance="10"
     gridtolerance="10"
     guidetolerance="10"
     inkscape:pageopacity="0"
     inkscape:pageshadow="2"
     inkscape:window-width="1920"
     inkscape:window-height="986"
     id="namedview215"
     showgrid="false"
     inkscape:zoom="3.7119704"
     inkscape:cx="-63.546919"
     inkscape:cy="154.15851"
     inkscape:window-x="-11"
     inkscape:window-y="-11"
     inkscape:window-maximized="1"
     inkscape:current-layer="Layer_1" />
  <defs
     id="defs4">
    <style
       id="style2">.cls-1,.cls-6{fill:#2c2a40;}.cls-1{opacity:0.15;}.cls-2{fill:#63676d;}.cls-3{fill:#404348;}.cls-4{fill:#a0bbe7;}.cls-5{fill:#ecb28a;}.cls-7{fill:#82a6e1;}.cls-8{fill:#383851;}.cls-9{fill:#82423c;}.cls-10{fill:#5c1a31;}.cls-11{fill:#bfd7f7;}.cls-12{fill:#e8967c;}.cls-13{fill:#ededed;}.cls-14{fill:#107b85;}.cls-15{fill:#079798;}.cls-16{fill:#fff;}.cls-17{opacity:0.2;}.cls-18{fill:#ff6160;}.cls-19{fill:#9ca4ae;}.cls-20{fill:#00b3d8;}</style>
  </defs>
  <title
     id="title6">testimonials-2-men-talking</title>
  <ellipse
     class="cls-1"
     cx="109.211"
     cy="174.87"
     rx="107.184"
     ry="4.956"
     id="ellipse8" />
  <rect
     class="cls-2"
     x="164.964"
     y="123.056"
     width="40.5"
     height="8.75"
     rx="3.074"
     ry="3.074"
     transform="translate(370.429 254.862) rotate(180)"
     id="rect10" />
  <path
     class="cls-2"
     d="M200.094,69.216l7.429,0.868a8.326,8.326,0,0,1,7.221,9.778l-7.3,39.627a8.326,8.326,0,0,1-8.5,6.811l-18.11-.669a8.325,8.325,0,0,1-7.817-10.137l8.906-39.826a8.326,8.326,0,0,1,8.125-6.509h9.079A8.326,8.326,0,0,1,200.094,69.216Z"
     id="path12" />
  <path
     class="cls-3"
     d="M196.832,74.856l5.96,0.7a6.679,6.679,0,0,1,5.793,7.844l-5.859,31.79a6.679,6.679,0,0,1-6.815,5.464l-14.528-.537a6.679,6.679,0,0,1-6.271-8.132l7.145-31.949a6.679,6.679,0,0,1,6.518-5.221h7.284A6.673,6.673,0,0,1,196.832,74.856Z"
     id="path14" />
  <polygon
     class="cls-2"
     points="158.705 174.801 162.063 174.801 170.065 142.778 172.808 131.806 173.333 129.701 170.19 128.838 169.448 131.806 166.708 142.778 158.705 174.801"
     id="polygon16" />
  <polygon
     class="cls-3"
     points="166.708 142.778 170.065 142.778 172.808 131.806 169.448 131.806 166.708 142.778"
     id="polygon18" />
  <polygon
     class="cls-2"
     points="197.26 129.701 197.785 131.806 200.528 142.778 208.528 174.801 211.885 174.801 203.885 142.778 201.145 131.806 200.403 128.838 197.26 129.701"
     id="polygon20" />
  <polygon
     class="cls-3"
     points="197.785 131.806 200.528 142.778 203.885 142.778 201.145 131.806 197.785 131.806"
     id="polygon22" />
  <path
     class="cls-4"
     d="M182.38,62.46l-1.872,22.388s-5.33,10.445-8.722,10.19c-2.745-.208-9.755-0.922-13.215-1.28-1.217-.125-1.995-0.208-1.995-0.208l-1.25-5.475c0.74,0.045,1.638.075,2.63,0.095,5.267,0.1,13.107-.095,13.107-0.095C173.175,82.1,182.38,62.46,182.38,62.46Z"
     id="path24" />
  <path
     class="cls-4"
     d="M158.57,93.758c-1.217-.125-1.995-0.208-1.995-0.208l-1.25-5.475c0.74,0.045,1.638.075,2.63,0.095A13.3,13.3,0,0,1,158.57,93.758Z"
     id="path26" />
  <path
     class="cls-5"
     d="M155.325,88.075s-1.488-1.97-2.175-3.157-1.937-.625-1,2.188a18.789,18.789,0,0,0-5.125-.187c-1.75.375-1.5,4.438,0.375,6.25s9.176,0.383,9.176.383S156.875,90.245,155.325,88.075Z"
     id="path28" />
  <path
     class="cls-6"
     d="M200.405,113.464s-1.476,11.363-16.169,9.962c-13.11-1.25-10.915-12.068-10.915-12.068S191.579,110.561,200.405,113.464Z"
     id="path30" />
  <path
     class="cls-4"
     d="M206.522,64.21l-2.8,22.54-1.027,8.282-2.29,18.43c-4.622,1.153-8.987,2.115-13.15,1.16-2.6-.6-4.635-0.965-8.477-1.64a19.377,19.377,0,0,1-5.455-1.625l2.52-13.6,0.695-3.755,5.843-31.545,6.557-.675h0l8.685-.257Z"
     id="path32" />
  <path
     class="cls-7"
     d="M203.722,86.75l-1.027,8.282a8.973,8.973,0,0,1-3.468,2.7c-4.16,1.608-20.89.242-23.385,0.027l0.695-3.755c20.785,2.023,26.69-7.525,26.69-7.525Z"
     id="path34" />
  <path
     class="cls-6"
     d="M182.835,119.884s-8.87,8.577-20.5,9.5a69.574,69.574,0,0,1-2.792,12.257c-1.975,5.688-10.234,25.679-10.234,25.679l-7.389-.225L154.9,120.28a5.546,5.546,0,0,1,3.9-3.872l14.765-3.986S183.309,115.619,182.835,119.884Z"
     id="path40" />
  <path
     class="cls-9"
     d="M146.967,174.666l-15.8.135c2.16-4.119,10.194-5.708,10.194-5.708l0.333-1.346,0.422-1.379c2.177-.659,7.187.953,7.187,0.953Z"
     id="path42" />
  <path
     class="cls-10"
     d="M146.441,170.141c-1.671-1.368-5.075-1.049-5.075-1.049l0.333-1.346C145.238,167.943,146.441,170.141,146.441,170.141Z"
     id="path44" />
  <path
     class="cls-8"
     d="M196.9,119.968s-10.913,12.643-21.566,11.805c0,0,.167,8.778-0.333,14.778s-1.818,20.77-1.818,20.77l-6.245.261-1.654-39.727a4.589,4.589,0,0,1,2.326-4.186l13.622-7.7S196.3,115.719,196.9,119.968Z"
     id="path46" />
  <path
     class="cls-9"
     d="M172.242,174.768l-15.782.033c2.16-4.119,10.129-5.723,10.129-5.723l0.286-1.331,0.042-.662c2.177-.659,6.266.236,6.266,0.236Z"
     id="path48" />
  <path
     class="cls-10"
     d="M171.063,170.141c-1.671-1.368-4.473-1.064-4.473-1.064l0.286-1.331C170.414,167.943,171.063,170.141,171.063,170.141Z"
     id="path50" />
  <path
     class="cls-4"
     d="M211.207,74.811c-2,9.235-12.179,21.062-12.179,21.062s-10.985,2.465-21.518-.81c-0.6-.185-1.195-0.388-1.787-0.612a16.194,16.194,0,0,1,0-4.963s0.748,0.235,1.787.453a12.771,12.771,0,0,0,4.025.3c4.4-.6,13.677-2.163,13.677-2.163s4.545-6.537,11.308-23.865C206.52,64.21,213.207,65.573,211.207,74.811Z"
     id="path52" />
  <path
     class="cls-11"
     d="M177.51,89.94v5.123c-0.6-.185-1.195-0.388-1.787-0.612a16.194,16.194,0,0,1,0-4.963S176.47,89.723,177.51,89.94Z"
     id="path54" />
  <path
     class="cls-5"
     d="M175.722,89.488s-2.612-2.962-3.447-3.008c-1.031-.057-0.428,1.977-0.428,1.977s-2.322-1.164-3.916-.008c-1.452,1.053-.724,8.267,7.791,6V89.488Z"
     id="path56" />
  <path
     class="cls-5"
     d="m 197.623,61.525 a 9.335,9.335 0 0 1 -7.709,3.43 l -0.707,-2.652 -0.9,-3.375 a 14.233,14.233 0 0 1 1.836,-2.664 c 1.321,-1.509 3.29,-3.04 5.687,-2.726 z"
     id="path58"
     inkscape:connector-curvature="0"
     style="fill:#ecb28a" />
  <path
     class="cls-12"
     d="m 194.65674,53.753623 c 0,0 -1.13,5.71 -5.729,7.546 l -0.9,-3.375 a 14.233,14.233 0 0 1 1.836,-2.664 z"
     id="path60"
     inkscape:connector-curvature="0"
     style="fill:#e8967c" />
  <path
     class="cls-5"
     d="M179.963,38.085l-1.2,17.18a3.917,3.917,0,0,0,3.937,4.2c4.387-.046,11.045-1.241,14.143-7.538C201.68,42.09,189.746,31.712,179.963,38.085Z"
     id="path62" />
  <path
     class="cls-5"
     d="M179.48,45L177.4,49.8a1.1,1.1,0,0,0,.577,1.451l1.038,0.445S180.664,50.431,179.48,45Z"
     id="path64" />
  <path
     class="cls-6"
     d="m 180.559,39.494 c 0,0 -1.3521,0.662489 -0.7871,-3.585511 1.055,-7.991 12.6781,-4.330489 18.2521,-1.420489 6.318,3.3 3.133,13.916 1.4,16.977 -0.63957,1.104766 -1.53026,2.043425 -2.6,2.74 -1.125,0.749 -2.844,-0.1 -3.309,-1.369 -0.465,-1.269 -1.058,-2.688 1.091,-5.72 1.578,-2.228 -0.727,-5.446 -3.088,-3.328 -2.361,2.118 -3.285,1.708 -2.546,-1.077 0.739,-2.785 -4.235,-4.311 -8.413,-3.217 z"
     id="path66"
     inkscape:connector-curvature="0"
     style="fill:#2c2a40"
     sodipodi:nodetypes="cccccscssc" />
  <rect
     class="cls-2"
     x="9.419"
     y="123.056"
     width="40.5"
     height="8.75"
     rx="3.074"
     ry="3.074"
     id="rect74" />
  <path
     class="cls-2"
     d="M14.789,69.216l-7.429.868A8.326,8.326,0,0,0,.14,79.863l7.3,39.627a8.326,8.326,0,0,0,8.5,6.811l18.11-.669a8.326,8.326,0,0,0,7.817-10.137L32.96,75.668a8.326,8.326,0,0,0-8.125-6.509H15.756A8.326,8.326,0,0,0,14.789,69.216Z"
     id="path76" />
  <path
     class="cls-3"
     d="M18.051,74.856l-5.96.7A6.679,6.679,0,0,0,6.3,83.4l5.859,31.79a6.679,6.679,0,0,0,6.815,5.464l14.528-.537a6.679,6.679,0,0,0,6.271-8.132L32.628,80.032a6.679,6.679,0,0,0-6.518-5.221H18.827A6.673,6.673,0,0,0,18.051,74.856Z"
     id="path78" />
  <polygon
     class="cls-2"
     points="56.179 174.801 52.821 174.801 44.819 142.778 42.076 131.806 41.551 129.701 44.694 128.838 45.436 131.806 48.176 142.778 56.179 174.801"
     id="polygon80" />
  <polygon
     class="cls-3"
     points="48.176 142.778 44.819 142.778 42.076 131.806 45.436 131.806 48.176 142.778"
     id="polygon82" />
  <polygon
     class="cls-2"
     points="17.623 129.701 17.098 131.806 14.356 142.778 6.356 174.801 2.998 174.801 10.998 142.778 13.738 131.806 14.481 128.838 17.623 129.701"
     id="polygon84" />
  <polygon
     class="cls-3"
     points="17.098 131.806 14.356 142.778 10.998 142.778 13.738 131.806 17.098 131.806"
     id="polygon86" />
  <path
     class="cls-6"
     d="M32.488,62.46l1.718,11.611S47.4,86.732,50.793,86.479c5.663-.421,13.613-4.084,16.589-5.884,1.048-.633,1.715-1.039,1.715-1.039L67.89,74.071c-0.65.357-1.449,0.767-2.338,1.209-4.719,2.342-14.76,3.59-14.76,3.59C46.331,74.369,32.488,62.46,32.488,62.46Z"
     id="path88"
     style="fill:#000060;fill-opacity:1" />
  <path
     class="cls-13"
     d="M67.382,80.595c1.048-.633,1.715-1.039,1.715-1.039L67.89,74.071c-0.65.357-1.449,0.767-2.338,1.209A13.3,13.3,0,0,0,67.382,80.595Z"
     id="path90" />
  <path
     class="cls-5"
     d="M67.89,74.07s0.5-2.416.619-3.784,1.485-1.392,1.838,1.551A18.794,18.794,0,0,1,74.9,69.48c1.743-.408,3.251,3.372,2.33,5.812S69.1,79.556,69.1,79.556,67.415,76.695,67.89,74.07Z"
     id="path92" />
  <path
     class="cls-6"
     d="M14.478,113.464s1.476,11.363,16.169,9.962c13.11-1.25,10.915-12.068,10.915-12.068S23.3,110.561,14.478,113.464Z"
     id="path94" />
  <path
     class="cls-6"
     d="m 14.478,113.464 c 1.194114,6.62769 8.178402,3.68457 12.341402,2.73057 2.6,-0.6 5.445598,-2.53757 9.286598,-3.21257 1.888229,-0.27046 3.726302,-0.81767 5.455,-1.624 L 32.5,62.46 25.943,61.785 v 0 l -8.685,-0.257 -8.9,2.684 z"
     id="path96"
     style="fill:#000060;fill-opacity:1"
     inkscape:connector-curvature="0"
     sodipodi:nodetypes="cccccccccc" />
  <path
     class="cls-13"
     d="M 27.891929,115.93265 C 30.368929,115.65265 33.43,114.123 36.107,112.982 35.598056,110.32681 29.910783,105.03936 28.582004,98.172574 26.145926,85.583557 27.545878,68.878923 25.947,61.782 v 0 l -8.685,-0.257 c 0,0 8.170285,19.600035 11.381784,36.629368 1.285454,6.816262 -1.192922,13.192392 -0.751855,17.778282 z"
     id="path98"
     style="fill:#9dd542;fill-opacity:1"
     inkscape:connector-curvature="0"
     sodipodi:nodetypes="ccscccsc" />
  <path
     class="cls-6"
     d="M32.049,119.884s8.87,8.577,20.5,9.5a69.575,69.575,0,0,0,2.792,12.257c1.975,5.688,10.234,25.679,10.234,25.679l7.389-.225L59.979,120.28a5.546,5.546,0,0,0-3.9-3.872l-14.765-3.986S31.575,115.619,32.049,119.884Z"
     id="path104" />
  <path
     class="cls-9"
     d="M67.917,174.666l15.8,0.135c-2.16-4.119-10.194-5.708-10.194-5.708l-0.333-1.346-0.422-1.379c-2.177-.659-7.187.953-7.187,0.953Z"
     id="path106" />
  <path
     class="cls-10"
     d="M68.443,170.141c1.671-1.368,5.075-1.049,5.075-1.049l-0.333-1.346C69.645,167.943,68.443,170.141,68.443,170.141Z"
     id="path108" />
  <path
     class="cls-8"
     d="M17.983,119.968S28.9,132.611,39.549,131.773c0,0-.167,8.778.333,14.778s1.818,20.77,1.818,20.77l6.245,0.261L49.6,127.855a4.589,4.589,0,0,0-2.326-4.186l-13.622-7.7S18.583,115.719,17.983,119.968Z"
     id="path110" />
  <path
     class="cls-9"
     d="M42.641,174.768L58.424,174.8c-2.16-4.119-10.129-5.723-10.129-5.723l-0.286-1.331-0.042-.662c-2.177-.659-6.266.236-6.266,0.236Z"
     id="path112" />
  <path
     class="cls-10"
     d="M43.821,170.141c1.671-1.368,4.473-1.064,4.473-1.064l-0.286-1.331C44.469,167.943,43.821,170.141,43.821,170.141Z"
     id="path114" />
  <path
     class="cls-6"
     d="M6.266,83.148a18.9,18.9,0,0,0,9.59,12.725s10.985,2.465,21.518-.81c0.6-.185,1.2-0.388,1.787-0.612a16.194,16.194,0,0,0,0-4.963s-0.747.235-1.787,0.453a12.771,12.771,0,0,1-4.025.3c-4.4-.6-13.677-2.163-13.677-2.163S15.126,81.538,8.363,64.21C8.363,64.21,4.266,73.91,6.266,83.148Z"
     id="path116"
     style="fill:#000060;fill-opacity:1" />
  <path
     class="cls-13"
     d="M37.374,89.94v5.123c0.6-.185,1.2-0.388,1.787-0.612a16.194,16.194,0,0,0,0-4.963S38.414,89.723,37.374,89.94Z"
     id="path118" />
  <path
     class="cls-5"
     d="M39.162,89.488s2.612-2.962,3.447-3.008c1.031-.057.428,1.977,0.428,1.977s2.322-1.164,3.916-.008c1.451,1.053.724,8.267-7.791,6V89.488Z"
     id="path120" />
  <path
     class="cls-5"
     d="M17.854,60.372a9.335,9.335,0,0,0,7.735,3.37l0.687-2.657L27.151,57.7a14.232,14.232,0,0,0-1.857-2.649c-1.333-1.5-3.314-3.014-5.708-2.681Z"
     id="path122" />
  <path
     class="cls-12"
     d="M20.489,53.584s1.175,5.7,5.787,7.5L27.151,57.7a14.232,14.232,0,0,0-1.857-2.649Z"
     id="path124" />
  <path
     class="cls-5"
     d="M34.776,37.85l1.332,17.17a3.917,3.917,0,0,1-3.9,4.226c-4.387-.012-11.055-1.155-14.2-7.428C13.09,42.025,24.943,31.554,34.776,37.85Z"
     id="path126" />
  <path
     class="cls-5"
     d="M35.312,44.76l2.12,4.788A1.1,1.1,0,0,1,36.866,51l-1.035.453S34.171,50.2,35.312,44.76Z"
     id="path128" />
  <path
     class="cls-16"
     d="M23.561,63.594L19.6,66.213s-4.067-4.277-3.3-6.267,1.935-1.3,1.935-1.3S20.339,62.241,23.561,63.594Z"
     id="path132"
     style="fill:#73d509;fill-opacity:1" />
  <path
     class="cls-16"
     d="M26.36,60.768s1.721,1.734,1.725,3.105-2.309,2.8-2.309,2.8l-2.215-3.081a10.839,10.839,0,0,0,2.033.137Z"
     id="path134"
     style="fill:#73d509;fill-opacity:1" />
  <rect
     class="cls-9"
     x="47.899"
     y="102.045"
     width="5.443"
     height="72.444"
     id="rect136" />
  <rect
     class="cls-10"
     x="47.899"
     y="102.045"
     width="5.443"
     height="12.58"
     id="rect138" />
  <rect
     class="cls-9"
     x="161.642"
     y="102.045"
     width="5.443"
     height="72.444"
     id="rect140" />
  <rect
     class="cls-10"
     x="161.642"
     y="102.045"
     width="5.443"
     height="12.58"
     id="rect142" />
  <rect
     class="cls-9"
     x="36.361"
     y="95.043"
     width="140.642"
     height="7.002"
     id="rect144" />
  <rect
     class="cls-10"
     x="53.343"
     y="121.248"
     width="108.299"
     height="3.261"
     id="rect146" />
  <rect
     class="cls-10"
     x="53.343"
     y="138.241"
     width="108.299"
     height="3.261"
     id="rect148" />
  <path
     class="cls-17"
     d="M110.255,29.664a14.133,14.133,0,1,1,14.133-14.133A14.149,14.149,0,0,1,110.255,29.664Z"
     id="path150" />
  <path
     class="cls-6"
     d="M110.255,28.267a14.133,14.133,0,1,1,14.133-14.133A14.149,14.149,0,0,1,110.255,28.267Z"
     id="path152" />
  <circle
     class="cls-16"
     cx="110.255"
     cy="14.133"
     r="12.054"
     id="circle154" />
  <path
     class="cls-6"
     d="M110.255,5.851a0.4,0.4,0,0,1-.4-0.4V3.229a0.4,0.4,0,0,1,.791,0V5.455A0.4,0.4,0,0,1,110.255,5.851Z"
     id="path156" />
  <path
     class="cls-6"
     d="M110.255,25.175a0.4,0.4,0,0,1-.4-0.4V22.553a0.4,0.4,0,0,1,.791,0v2.226A0.4,0.4,0,0,1,110.255,25.175Z"
     id="path158" />
  <path
     class="cls-6"
     d="M102.443,14a0.4,0.4,0,0,1-.4.4H99.822a0.4,0.4,0,0,1,0-.791h2.226A0.4,0.4,0,0,1,102.443,14Z"
     id="path160" />
  <path
     class="cls-6"
     d="M121.768,14a0.4,0.4,0,0,1-.4.4h-2.226a0.4,0.4,0,0,1,0-.791h2.226A0.4,0.4,0,0,1,121.768,14Z"
     id="path162" />
  <path
     class="cls-6"
     d="M104.643,8.481a0.4,0.4,0,0,1-.56,0L102.51,6.907a0.4,0.4,0,0,1,.56-0.56l1.574,1.574A0.4,0.4,0,0,1,104.643,8.481Z"
     id="path164" />
  <path
     class="cls-6"
     d="M118.308,22.145a0.4,0.4,0,0,1-.56,0l-1.574-1.574a0.4,0.4,0,0,1,.56-0.56l1.574,1.574A0.4,0.4,0,0,1,118.308,22.145Z"
     id="path166" />
  <path
     class="cls-6"
     d="M104.885,19.769a0.4,0.4,0,0,1,0,.56L103.311,21.9a0.4,0.4,0,0,1-.56-0.56l1.574-1.574A0.4,0.4,0,0,1,104.885,19.769Z"
     id="path168" />
  <path
     class="cls-6"
     d="M118.55,6.105a0.4,0.4,0,0,1,0,.56l-1.574,1.574a0.4,0.4,0,1,1-.56-0.56l1.574-1.574A0.4,0.4,0,0,1,118.55,6.105Z"
     id="path170" />
  <path
     class="cls-17"
     d="M122.308,14.133q0,0.526-.045,1.04a12.053,12.053,0,0,0-24.017,0q-0.046-.513-0.045-1.04A12.053,12.053,0,0,1,122.308,14.133Z"
     id="path172" />
  <polygon
     class="cls-18"
     points="110.574 14.4 113.99 22.635 109.999 14.796 110.574 14.4"
     id="polygon174" />
  <circle
     class="cls-6"
     cx="110.339"
     cy="14.004"
     r="1.28"
     id="circle176" />
  <polygon
     class="cls-6"
     points="109.241 14.004 107.272 9.119 110.339 13.401 109.241 14.004"
     id="polygon178" />
  <polygon
     class="cls-6"
     points="110.435 13.303 118.12 16.532 109.999 14.652 110.435 13.303"
     id="polygon180" />
  <path
     class="cls-8"
     d="M109.4,77.948v5.69H83.62a1.469,1.469,0,0,1-1.469-1.469V79.417a1.469,1.469,0,0,1,1.469-1.469H109.4Z"
     id="path182" />
  <path
     class="cls-13"
     d="M109.4,78.668v4.25H86.009a1.357,1.357,0,0,1-1.357-1.358V80.028a1.358,1.358,0,0,1,1.357-1.36H109.4Z"
     id="path184" />
  <rect
     class="cls-19"
     x="87.027"
     y="79.53"
     width="22.375"
     height="0.375"
     id="rect186" />
  <rect
     class="cls-19"
     x="87.027"
     y="80.605"
     width="22.375"
     height="0.375"
     id="rect188" />
  <rect
     class="cls-19"
     x="87.027"
     y="81.68"
     width="22.375"
     height="0.375"
     id="rect190" />
  <path
     class="cls-18"
     d="M109.4,83.638v5.69H83.62a1.469,1.469,0,0,1-1.469-1.469V85.107a1.469,1.469,0,0,1,1.469-1.469H109.4Z"
     id="path192" />
  <path
     class="cls-13"
     d="M109.4,84.358v4.25H86.009a1.357,1.357,0,0,1-1.357-1.358V85.718a1.358,1.358,0,0,1,1.357-1.36H109.4Z"
     id="path194" />
  <rect
     class="cls-19"
     x="87.027"
     y="85.22"
     width="22.375"
     height="0.375"
     id="rect196" />
  <rect
     class="cls-19"
     x="87.027"
     y="86.295"
     width="22.375"
     height="0.375"
     id="rect198" />
  <rect
     class="cls-19"
     x="87.027"
     y="87.37"
     width="22.375"
     height="0.375"
     id="rect200" />
  <path
     class="cls-20"
     d="M109.4,89.328v5.69H83.62a1.469,1.469,0,0,1-1.469-1.469V90.8a1.469,1.469,0,0,1,1.469-1.469H109.4Z"
     id="path202" />
  <path
     class="cls-13"
     d="M109.4,90.048V94.3H86.009a1.357,1.357,0,0,1-1.357-1.358V91.408a1.358,1.358,0,0,1,1.357-1.36H109.4Z"
     id="path204" />
  <rect
     class="cls-19"
     x="87.027"
     y="90.91"
     width="22.375"
     height="0.375"
     id="rect206" />
  <rect
     class="cls-19"
     x="87.027"
     y="91.985"
     width="22.375"
     height="0.375"
     id="rect208" />
  <rect
     class="cls-19"
     x="87.027"
     y="93.06"
     width="22.375"
     height="0.375"
     id="rect210" />
  <path
     class="cls-8"
     d="M131.55,84.5V80.95H120.788V95.2H131.55V93.018A4.258,4.258,0,0,0,131.55,84.5Zm0,6.765V86.253A2.507,2.507,0,0,1,131.55,91.268Z"
     id="path212" />
  <path
     style="fill:#000000;fill-opacity:1;stroke:#000000;stroke-width:0;stroke-linecap:butt;stroke-linejoin:miter;stroke-miterlimit:4;stroke-dasharray:none;stroke-opacity:1"
     d="m 198.00763,43.378656 c 0.23573,0.101024 6.12924,2.286795 9.1263,3.16234 2.99706,0.875546 4.64712,0.707172 4.64712,0 0,-0.707171 -9.79937,-4.579778 -9.79937,-4.579778 z"
     id="path1041"
     inkscape:connector-curvature="0"
     sodipodi:nodetypes="csscc" />
  <path
     style="fill:#2c3640;fill-opacity:1;stroke:#000000;stroke-width:0;stroke-linecap:butt;stroke-linejoin:miter;stroke-miterlimit:4;stroke-dasharray:none;stroke-opacity:1"
     d="m 179.87555,40.699901 c -0.43989,0 -1.8576,-5.335501 -1.31352,-6.30894 0.0861,-0.973437 5.10056,-3.602423 7.68264,-3.602423 2.58207,0 6.97158,0.530966 9.03725,0.707954 2.06565,0.176988 3.74399,1.061932 5.1211,2.743324 1.3771,1.681392 1.33326,2.478237 1.76441,3.362785 0.43135,0.884942 0.29411,5.194154 -0.34428,5.575141 -2.14581,1.400548 -14.7096,-2.212411 -21.9476,-2.477841 z"
     id="path1024"
     inkscape:connector-curvature="0"
     sodipodi:nodetypes="ccsscscc" />
  <path
     style="fill:#000000;fill-opacity:1;stroke:#000000;stroke-width:0;stroke-linecap:butt;stroke-linejoin:miter;stroke-miterlimit:4;stroke-dasharray:none;stroke-opacity:1"
     d="m 178.65879,37.069565 c 0.18521,0 1.78783,-0.0436 1.78783,-0.0436 l 0.0114,2.299668 -1.23742,-0.01023 c -0.25779,-0.748613 -0.41308,-1.497225 -0.56181,-2.245838 z"
     id="path1043"
     inkscape:connector-curvature="0"
     sodipodi:nodetypes="ccccc" />
  <path
     style="fill:#2c2a40;fill-opacity:1;stroke:#000000;stroke-width:0;stroke-linecap:butt;stroke-linejoin:miter;stroke-miterlimit:4;stroke-dasharray:none;stroke-opacity:1"
     d="m 34.776,37.85 c -2.655377,8.479294 -10.906831,12.098793 -15.454814,16.858342 -0.225975,0.406754 -3.727742,-1.96014 -4.641761,-4.052247 -0.274852,-0.629112 -3.128246,-3.847997 -3.588268,-5.397546 -0.639822,-2.15519 -1.3426172,-5.522263 -1.3426172,-6.532508 0,-1.010245 0.00181,-5.88055 1.0120592,-6.823445 1.010245,-0.942896 4.428737,-0.821153 7.324773,-1.023202 2.896036,-0.202049 6.044465,0.551493 8.470128,0.97657 2.257995,0.395694 7.210256,2.605671 8.220501,5.994037 z"
     id="path1045"
     inkscape:connector-curvature="0"
     sodipodi:nodetypes="ccsssssscc" />
  <path
     style="fill:#ffd42a;fill-opacity:1;stroke:#000000;stroke-width:0;stroke-linecap:butt;stroke-linejoin:miter;stroke-miterlimit:4;stroke-dasharray:none;stroke-opacity:1"
     d="m 19.321186,54.708342 c -0.520008,0.238724 -2.088631,-0.908157 -2.464392,-1.373695 4.97774,-5.404035 13.231142,-10.437197 16.431971,-17.8433 0.715832,0.485365 1.215296,1.365982 1.487236,2.358653 -2.161525,8.044693 -11.482508,12.748532 -15.454815,16.858342 z"
     id="path1047"
     inkscape:connector-curvature="0"
     sodipodi:nodetypes="ccccc" />
  <path
     inkscape:connector-curvature="0"
     class="cls-8"
     d="m 62.307341,84.5 v -3.55 h 10.762 V 95.2 h -10.762 v -2.182 a 4.259,4.259 0 0 1 0,-8.518 z m 0,6.765 v -5.012 a 2.5075,2.5075 0 0 0 0,5.015 z"
     id="path212-0"
     style="fill:#383851" />
</svg>
